<svg width="44" height="44" viewBox="0 0 44 44" fill="none" xmlns="http://www.w3.org/2000/svg">
<g filter="url(#filter0_d_70_4405)">
<rect x="5" y="3" width="34" height="34" rx="17" fill="#FFE1E1"/>
<path d="M26.1667 15.0001H30.3334V16.6667H28.6667V27.5001C28.6667 27.9603 28.2937 28.3334 27.8334 28.3334H16.1667C15.7065 28.3334 15.3334 27.9603 15.3334 27.5001V16.6667H13.6667V15.0001H17.8334V12.5001C17.8334 12.0398 18.2065 11.6667 18.6667 11.6667H25.3334C25.7937 11.6667 26.1667 12.0398 26.1667 12.5001V15.0001ZM27.0001 16.6667H17.0001V26.6667H27.0001V16.6667ZM19.5001 19.1667H21.1667V24.1667H19.5001V19.1667ZM22.8334 19.1667H24.5001V24.1667H22.8334V19.1667ZM19.5001 13.3334V15.0001H24.5001V13.3334H19.5001Z" fill="black"/>
</g>
<defs>
<filter id="filter0_d_70_4405" x="0" y="0" width="44" height="44" filterUnits="userSpaceOnUse" color-interpolation-filters="sRGB">
<feFlood flood-opacity="0" result="BackgroundImageFix"/>
<feColorMatrix in="SourceAlpha" type="matrix" values="0 0 0 0 0 0 0 0 0 0 0 0 0 0 0 0 0 0 127 0" result="hardAlpha"/>
<feOffset dy="2"/>
<feGaussianBlur stdDeviation="2.5"/>
<feColorMatrix type="matrix" values="0 0 0 0 0.14902 0 0 0 0 0.2 0 0 0 0 0.301961 0 0 0 0.03 0"/>
<feBlend mode="normal" in2="BackgroundImageFix" result="effect1_dropShadow_70_4405"/>
<feBlend mode="normal" in="SourceGraphic" in2="effect1_dropShadow_70_4405" result="shape"/>
</filter>
</defs>
</svg>
