<svg width="20" height="25" viewBox="0 0 20 25" fill="none" xmlns="http://www.w3.org/2000/svg">
<path d="M10 12.25H18.75M18.75 12.25L15 16M18.75 12.25L15 8.5M18.75 4.75V3.5C18.75 2.83696 18.4866 2.20107 18.0178 1.73223C17.5489 1.26339 16.913 1 16.25 1H3.75C3.08696 1 2.45107 1.26339 1.98223 1.73223C1.51339 2.20107 1.25 2.83696 1.25 3.5V21C1.25 21.663 1.51339 22.2989 1.98223 22.7678C2.45107 23.2366 3.08696 23.5 3.75 23.5H16.25C16.913 23.5 17.5489 23.2366 18.0178 22.7678C18.4866 22.2989 18.75 21.663 18.75 21V19.75" stroke="#F24E1E" stroke-width="2" stroke-linecap="round" stroke-linejoin="round"/>
</svg>
